# xmcd
#
# Track frame offsets:
# 150
# 19206
# 37820
# 55251
# 72334
# 90409
# 102372
# 125501
# 136051
# 154891
#
# Disc length: 2231 seconds
#
# Revision: 1
# Processed by: cddbd v1.5.2PL0 Copyright (c) Steve Scherf et al.
# Submitted via: CedeCatalogueitor 2.6.0.6 http://personales.ya.com/cdcatalogueitor
#
DISCID=7d08b50a
DTITLE=Niños Mutantes - Grandes éxitos De Otros
DYEAR=1900
DGENRE=
TTITLE0=Como Yo Te Amo
TTITLE1=Amigo
TTITLE2=Perdido En Mi Habitación
TTITLE3=Electricistas
TTITLE4=En Tus Ojos
TTITLE5=Nadie Te Quiere Ya
TTITLE6=No Llorar (Boys Don't Cry)
TTITLE7=Lave Me Be
TTITLE8=El Silencio (Enjoy The Silence)
TTITLE9=I'm Not Your Stepping Stone
EXTD=
EXTT0=
EXTT1=
EXTT2=
EXTT3=
EXTT4=
EXTT5=
EXTT6=
EXTT7=
EXTT8=
EXTT9=
PLAYORDER=
